<svg width="19" height="19" viewBox="0 0 19 19" fill="none" xmlns="http://www.w3.org/2000/svg">
<path d="M8.49953 14.5C9.28746 14.5 10.0677 14.3448 10.7956 14.0433C11.5236 13.7417 12.185 13.2998 12.7422 12.7426C13.2993 12.1855 13.7413 11.5241 14.0428 10.7961C14.3443 10.0681 14.4995 9.28793 14.4995 8.5C14.4995 7.71207 14.3443 6.93185 14.0428 6.2039C13.7413 5.47595 13.2993 4.81451 12.7422 4.25736C12.185 3.70021 11.5236 3.25825 10.7956 2.95672C10.0677 2.65519 9.28746 2.5 8.49953 2.5C6.90823 2.5 5.3821 3.13214 4.25689 4.25736C3.13167 5.38258 2.49953 6.9087 2.49953 8.5C2.49953 10.0913 3.13167 11.6174 4.25689 12.7426C5.3821 13.8679 6.90823 14.5 8.49953 14.5ZM14.8195 13.406L18.3995 16.986C18.495 17.0783 18.5711 17.1887 18.6234 17.3108C18.6757 17.4328 18.7032 17.564 18.7043 17.6968C18.7053 17.8296 18.6799 17.9613 18.6296 18.0841C18.5792 18.207 18.5049 18.3186 18.4109 18.4124C18.3169 18.5062 18.2052 18.5804 18.0823 18.6306C17.9594 18.6808 17.8277 18.706 17.6949 18.7047C17.5621 18.7035 17.4309 18.6758 17.309 18.6233C17.187 18.5708 17.0767 18.4946 16.9845 18.399L13.4045 14.819C11.797 16.0668 9.77432 16.6552 7.74828 16.4642C5.72224 16.2732 3.84513 15.3173 2.49908 13.7911C1.15302 12.2648 0.439211 10.2829 0.502952 8.24892C0.566694 6.2149 1.4032 4.28162 2.84217 2.84265C4.28115 1.40367 6.21443 0.567167 8.24845 0.503425C10.2825 0.439684 12.2643 1.1535 13.7906 2.49955C15.3168 3.8456 16.2727 5.72271 16.4637 7.74875C16.6547 9.77479 16.0664 11.7975 14.8185 13.405L14.8195 13.406Z" fill="black"/>
</svg>
